# xmcd CD database file
#
# Track frame offsets:
#	150
#	9570
#	30097
#	43261
#	53079
#	72023
#	82456
#	91674
#	111834
#	122234
#	134669
#	143599
#	154030
#	168213
#	187167
#	199583
#	213927
#	228327
#	237540
#	248588
#	263862
#	280451
#	294062
#	304129
#
# Disc length: 4191 seconds
#
# Revision: 0
# Processed by: cddbd v1.5.2PL0 Copyright (c) Steve Scherf et al.
# Submitted via: CDex 1.51
#
DISCID=53105d18
DTITLE=Tennessee Ernie Ford - Sings Songs Of The Civil War
DYEAR=1900
DGENRE=Country
TTITLE0=The Army of The Free
TTITLE1=Virginia's Bloody Soil
TTITLE2=Marching Song
TTITLE3=The Why And The Wherefore
TTITLE4=The Vacant Chair
TTITLE5=The Fall Of Charlestown
TTITLE6=The New York Volunteer
TTITLE7=The Faded Coat Of Blue
TTITLE8=Marching Through Georgia
TTITLE9=Just Before The Battle, Mother
TTITLE10=The Girl I Left Behind Me
TTITLE11=Union Dixie
TTITLE12=Stonewall Jackson's Way
TTITLE13=Lorena
TTITLE14=Riding a raid
TTITLE15=Maryland, My Maryland
TTITLE16=Goober Peas
TTITLE17=I Can Whip The Scoundrel
TTITLE18=The Bonnie Blue Flagf
TTITLE19=The Valiant Conscript
TTITLE20=The rebel Soldier
TTITLE21=The Southern Wagon
TTITLE22=Flight Of Doodles
TTITLE23=Dixie
EXTD=
EXTT0=
EXTT1=
EXTT2=
EXTT3=
EXTT4=
EXTT5=
EXTT6=
EXTT7=
EXTT8=
EXTT9=
EXTT10=
EXTT11=
EXTT12=
EXTT13=
EXTT14=
EXTT15=
EXTT16=
EXTT17=
EXTT18=
EXTT19=
EXTT20=
EXTT21=
EXTT22=
EXTT23=
PLAYORDER=
